<svg width="1400" height="951" viewBox="0 0 1400 951" fill="none" xmlns="http://www.w3.org/2000/svg">
<g opacity="0.5">
<g clip-path="url(#clip0_302_1677)">
<circle cx="37.2507" cy="4.2828" r="1.54818" fill="#6246EA"/>
<circle cx="91.9532" cy="4.2828" r="1.54818" fill="#6246EA"/>
<circle cx="146.656" cy="4.2828" r="1.54818" fill="#6246EA"/>
<circle cx="201.358" cy="4.2828" r="1.54818" fill="#6246EA"/>
<circle cx="256.061" cy="4.2828" r="1.54818" fill="#6246EA"/>
<circle cx="310.763" cy="4.2828" r="1.54818" fill="#6246EA"/>
<circle cx="365.466" cy="4.2828" r="1.54818" fill="#6246EA"/>
<circle cx="420.168" cy="4.2828" r="1.54818" fill="#6246EA"/>
<circle cx="474.871" cy="4.2828" r="1.54818" fill="#6246EA"/>
<circle cx="529.573" cy="4.2828" r="1.54818" fill="#6246EA"/>
<circle cx="584.276" cy="4.2828" r="1.54818" fill="#6246EA"/>
<circle cx="638.978" cy="4.2828" r="1.54818" fill="#6246EA"/>
<circle cx="693.681" cy="4.2828" r="1.54818" fill="#6246EA"/>
<circle cx="748.383" cy="4.2828" r="1.54818" fill="#6246EA"/>
<circle cx="803.086" cy="4.2828" r="1.54818" fill="#6246EA"/>
<circle cx="857.788" cy="4.2828" r="1.54818" fill="#6246EA"/>
<circle cx="912.491" cy="4.2828" r="1.54818" fill="#6246EA"/>
<circle cx="967.193" cy="4.2828" r="1.54818" fill="#6246EA"/>
<circle cx="1021.9" cy="4.2828" r="1.54818" fill="#6246EA"/>
<circle cx="1076.6" cy="4.2828" r="1.54818" fill="#6246EA"/>
<circle cx="1131.3" cy="4.2828" r="1.54818" fill="#6246EA"/>
<circle cx="1186" cy="4.2828" r="1.54818" fill="#6246EA"/>
<circle cx="1240.71" cy="4.2828" r="1.54818" fill="#6246EA"/>
<circle cx="1295.41" cy="4.2828" r="1.54818" fill="#6246EA"/>
<circle cx="1350.11" cy="4.2828" r="1.54818" fill="#6246EA"/>
</g>
<g clip-path="url(#clip1_302_1677)">
<circle cx="37.2507" cy="60.0174" r="1.54818" fill="#6246EA"/>
<circle cx="91.9532" cy="60.0174" r="1.54818" fill="#6246EA"/>
<circle cx="146.656" cy="60.0174" r="1.54818" fill="#6246EA"/>
<circle cx="201.358" cy="60.0174" r="1.54818" fill="#6246EA"/>
<circle cx="256.061" cy="60.0174" r="1.54818" fill="#6246EA"/>
<circle cx="310.763" cy="60.0174" r="1.54818" fill="#6246EA"/>
<circle cx="365.466" cy="60.0174" r="1.54818" fill="#6246EA"/>
<circle cx="420.168" cy="60.0174" r="1.54818" fill="#6246EA"/>
<circle cx="474.871" cy="60.0174" r="1.54818" fill="#6246EA"/>
<circle cx="529.573" cy="60.0174" r="1.54818" fill="#6246EA"/>
<circle cx="584.276" cy="60.0174" r="1.54818" fill="#6246EA"/>
<circle cx="638.978" cy="60.0174" r="1.54818" fill="#6246EA"/>
<circle cx="693.681" cy="60.0174" r="1.54818" fill="#6246EA"/>
<circle cx="748.383" cy="60.0174" r="1.54818" fill="#6246EA"/>
<circle cx="803.086" cy="60.0174" r="1.54818" fill="#6246EA"/>
<circle cx="857.788" cy="60.0174" r="1.54818" fill="#6246EA"/>
<circle cx="912.491" cy="60.0174" r="1.54818" fill="#6246EA"/>
<circle cx="967.193" cy="60.0174" r="1.54818" fill="#6246EA"/>
<circle cx="1021.9" cy="60.0174" r="1.54818" fill="#6246EA"/>
<circle cx="1076.6" cy="60.0174" r="1.54818" fill="#6246EA"/>
<circle cx="1131.3" cy="60.0174" r="1.54818" fill="#6246EA"/>
<circle cx="1186" cy="60.0174" r="1.54818" fill="#6246EA"/>
<circle cx="1240.71" cy="60.0174" r="1.54818" fill="#6246EA"/>
<circle cx="1295.41" cy="60.0174" r="1.54818" fill="#6246EA"/>
<circle cx="1350.11" cy="60.0174" r="1.54818" fill="#6246EA"/>
</g>
<g clip-path="url(#clip2_302_1677)">
<circle cx="37.2507" cy="115.752" r="1.54818" fill="#6246EA"/>
<circle cx="91.9532" cy="115.752" r="1.54818" fill="#6246EA"/>
<circle cx="146.656" cy="115.752" r="1.54818" fill="#6246EA"/>
<circle cx="201.358" cy="115.752" r="1.54818" fill="#6246EA"/>
<circle cx="256.061" cy="115.752" r="1.54818" fill="#6246EA"/>
<circle cx="310.763" cy="115.752" r="1.54818" fill="#6246EA"/>
<circle cx="365.466" cy="115.752" r="1.54818" fill="#6246EA"/>
<circle cx="420.168" cy="115.752" r="1.54818" fill="#6246EA"/>
<circle cx="474.871" cy="115.752" r="1.54818" fill="#6246EA"/>
<circle cx="529.573" cy="115.752" r="1.54818" fill="#6246EA"/>
<circle cx="584.276" cy="115.752" r="1.54818" fill="#6246EA"/>
<circle cx="638.978" cy="115.752" r="1.54818" fill="#6246EA"/>
<circle cx="693.681" cy="115.752" r="1.54818" fill="#6246EA"/>
<circle cx="748.383" cy="115.752" r="1.54818" fill="#6246EA"/>
<circle cx="803.086" cy="115.752" r="1.54818" fill="#6246EA"/>
<circle cx="857.788" cy="115.752" r="1.54818" fill="#6246EA"/>
<circle cx="912.491" cy="115.752" r="1.54818" fill="#6246EA"/>
<circle cx="967.193" cy="115.752" r="1.54818" fill="#6246EA"/>
<circle cx="1021.9" cy="115.752" r="1.54818" fill="#6246EA"/>
<circle cx="1076.6" cy="115.752" r="1.54818" fill="#6246EA"/>
<circle cx="1131.3" cy="115.752" r="1.54818" fill="#6246EA"/>
<circle cx="1186" cy="115.752" r="1.54818" fill="#6246EA"/>
<circle cx="1240.71" cy="115.752" r="1.54818" fill="#6246EA"/>
<circle cx="1295.41" cy="115.752" r="1.54818" fill="#6246EA"/>
<circle cx="1350.11" cy="115.752" r="1.54818" fill="#6246EA"/>
</g>
<g clip-path="url(#clip3_302_1677)">
<circle cx="37.2507" cy="171.487" r="1.54818" fill="#6246EA"/>
<circle cx="91.9532" cy="171.487" r="1.54818" fill="#6246EA"/>
<circle cx="146.656" cy="171.487" r="1.54818" fill="#6246EA"/>
<circle cx="201.358" cy="171.487" r="1.54818" fill="#6246EA"/>
<circle cx="256.061" cy="171.487" r="1.54818" fill="#6246EA"/>
<circle cx="310.763" cy="171.487" r="1.54818" fill="#6246EA"/>
<circle cx="365.466" cy="171.487" r="1.54818" fill="#6246EA"/>
<circle cx="420.168" cy="171.487" r="1.54818" fill="#6246EA"/>
<circle cx="474.871" cy="171.487" r="1.54818" fill="#6246EA"/>
<circle cx="529.573" cy="171.487" r="1.54818" fill="#6246EA"/>
<circle cx="584.276" cy="171.487" r="1.54818" fill="#6246EA"/>
<circle cx="638.978" cy="171.487" r="1.54818" fill="#6246EA"/>
<circle cx="693.681" cy="171.487" r="1.54818" fill="#6246EA"/>
<circle cx="748.383" cy="171.487" r="1.54818" fill="#6246EA"/>
<circle cx="803.086" cy="171.487" r="1.54818" fill="#6246EA"/>
<circle cx="857.788" cy="171.487" r="1.54818" fill="#6246EA"/>
<circle cx="912.491" cy="171.487" r="1.54818" fill="#6246EA"/>
<circle cx="967.193" cy="171.487" r="1.54818" fill="#6246EA"/>
<circle cx="1021.9" cy="171.487" r="1.54818" fill="#6246EA"/>
<circle cx="1076.6" cy="171.487" r="1.54818" fill="#6246EA"/>
<circle cx="1131.3" cy="171.487" r="1.54818" fill="#6246EA"/>
<circle cx="1186" cy="171.487" r="1.54818" fill="#6246EA"/>
<circle cx="1240.71" cy="171.487" r="1.54818" fill="#6246EA"/>
<circle cx="1295.41" cy="171.487" r="1.54818" fill="#6246EA"/>
<circle cx="1350.11" cy="171.487" r="1.54818" fill="#6246EA"/>
</g>
<g clip-path="url(#clip4_302_1677)">
<circle cx="37.2507" cy="227.221" r="1.54818" fill="#6246EA"/>
<circle cx="91.9532" cy="227.221" r="1.54818" fill="#6246EA"/>
<circle cx="146.656" cy="227.221" r="1.54818" fill="#6246EA"/>
<circle cx="201.358" cy="227.221" r="1.54818" fill="#6246EA"/>
<circle cx="256.061" cy="227.221" r="1.54818" fill="#6246EA"/>
<circle cx="310.763" cy="227.221" r="1.54818" fill="#6246EA"/>
<circle cx="365.466" cy="227.221" r="1.54818" fill="#6246EA"/>
<circle cx="420.168" cy="227.221" r="1.54818" fill="#6246EA"/>
<circle cx="474.871" cy="227.221" r="1.54818" fill="#6246EA"/>
<circle cx="529.573" cy="227.221" r="1.54818" fill="#6246EA"/>
<circle cx="584.276" cy="227.221" r="1.54818" fill="#6246EA"/>
<circle cx="638.978" cy="227.221" r="1.54818" fill="#6246EA"/>
<circle cx="693.681" cy="227.221" r="1.54818" fill="#6246EA"/>
<circle cx="748.383" cy="227.221" r="1.54818" fill="#6246EA"/>
<circle cx="803.086" cy="227.221" r="1.54818" fill="#6246EA"/>
<circle cx="857.788" cy="227.221" r="1.54818" fill="#6246EA"/>
<circle cx="912.491" cy="227.221" r="1.54818" fill="#6246EA"/>
<circle cx="967.193" cy="227.221" r="1.54818" fill="#6246EA"/>
<circle cx="1021.9" cy="227.221" r="1.54818" fill="#6246EA"/>
<circle cx="1076.6" cy="227.221" r="1.54818" fill="#6246EA"/>
<circle cx="1131.3" cy="227.221" r="1.54818" fill="#6246EA"/>
<circle cx="1186" cy="227.221" r="1.54818" fill="#6246EA"/>
<circle cx="1240.71" cy="227.221" r="1.54818" fill="#6246EA"/>
<circle cx="1295.41" cy="227.221" r="1.54818" fill="#6246EA"/>
<circle cx="1350.11" cy="227.221" r="1.54818" fill="#6246EA"/>
</g>
<g clip-path="url(#clip5_302_1677)">
<circle cx="37.2507" cy="282.956" r="1.54818" fill="#6246EA"/>
<circle cx="91.9532" cy="282.956" r="1.54818" fill="#6246EA"/>
<circle cx="146.656" cy="282.956" r="1.54818" fill="#6246EA"/>
<circle cx="201.358" cy="282.956" r="1.54818" fill="#6246EA"/>
<circle cx="256.061" cy="282.956" r="1.54818" fill="#6246EA"/>
<circle cx="310.763" cy="282.956" r="1.54818" fill="#6246EA"/>
<circle cx="365.466" cy="282.956" r="1.54818" fill="#6246EA"/>
<circle cx="420.168" cy="282.956" r="1.54818" fill="#6246EA"/>
<circle cx="474.871" cy="282.956" r="1.54818" fill="#6246EA"/>
<circle cx="529.573" cy="282.956" r="1.54818" fill="#6246EA"/>
<circle cx="584.276" cy="282.956" r="1.54818" fill="#6246EA"/>
<circle cx="638.978" cy="282.956" r="1.54818" fill="#6246EA"/>
<circle cx="693.681" cy="282.956" r="1.54818" fill="#6246EA"/>
<circle cx="748.383" cy="282.956" r="1.54818" fill="#6246EA"/>
<circle cx="803.086" cy="282.956" r="1.54818" fill="#6246EA"/>
<circle cx="857.788" cy="282.956" r="1.54818" fill="#6246EA"/>
<circle cx="912.491" cy="282.956" r="1.54818" fill="#6246EA"/>
<circle cx="967.193" cy="282.956" r="1.54818" fill="#6246EA"/>
<circle cx="1021.9" cy="282.956" r="1.54818" fill="#6246EA"/>
<circle cx="1076.6" cy="282.956" r="1.54818" fill="#6246EA"/>
<circle cx="1131.3" cy="282.956" r="1.54818" fill="#6246EA"/>
<circle cx="1186" cy="282.956" r="1.54818" fill="#6246EA"/>
<circle cx="1240.71" cy="282.956" r="1.54818" fill="#6246EA"/>
<circle cx="1295.41" cy="282.956" r="1.54818" fill="#6246EA"/>
<circle cx="1350.11" cy="282.956" r="1.54818" fill="#6246EA"/>
</g>
<g clip-path="url(#clip6_302_1677)">
<circle cx="37.2507" cy="338.691" r="1.54818" fill="#6246EA"/>
<circle cx="91.9532" cy="338.691" r="1.54818" fill="#6246EA"/>
<circle cx="146.656" cy="338.691" r="1.54818" fill="#6246EA"/>
<circle cx="201.358" cy="338.691" r="1.54818" fill="#6246EA"/>
<circle cx="256.061" cy="338.691" r="1.54818" fill="#6246EA"/>
<circle cx="310.763" cy="338.691" r="1.54818" fill="#6246EA"/>
<circle cx="365.466" cy="338.691" r="1.54818" fill="#6246EA"/>
<circle cx="420.168" cy="338.691" r="1.54818" fill="#6246EA"/>
<circle cx="474.871" cy="338.691" r="1.54818" fill="#6246EA"/>
<circle cx="529.573" cy="338.691" r="1.54818" fill="#6246EA"/>
<circle cx="584.276" cy="338.691" r="1.54818" fill="#6246EA"/>
<circle cx="638.978" cy="338.691" r="1.54818" fill="#6246EA"/>
<circle cx="693.681" cy="338.691" r="1.54818" fill="#6246EA"/>
<circle cx="748.383" cy="338.691" r="1.54818" fill="#6246EA"/>
<circle cx="803.086" cy="338.691" r="1.54818" fill="#6246EA"/>
<circle cx="857.788" cy="338.691" r="1.54818" fill="#6246EA"/>
<circle cx="912.491" cy="338.691" r="1.54818" fill="#6246EA"/>
<circle cx="967.193" cy="338.691" r="1.54818" fill="#6246EA"/>
<circle cx="1021.9" cy="338.691" r="1.54818" fill="#6246EA"/>
<circle cx="1076.6" cy="338.691" r="1.54818" fill="#6246EA"/>
<circle cx="1131.3" cy="338.691" r="1.54818" fill="#6246EA"/>
<circle cx="1186" cy="338.691" r="1.54818" fill="#6246EA"/>
<circle cx="1240.71" cy="338.691" r="1.54818" fill="#6246EA"/>
<circle cx="1295.41" cy="338.691" r="1.54818" fill="#6246EA"/>
<circle cx="1350.11" cy="338.691" r="1.54818" fill="#6246EA"/>
</g>
<g clip-path="url(#clip7_302_1677)">
<circle cx="37.2507" cy="394.425" r="1.54818" fill="#6246EA"/>
<circle cx="91.9532" cy="394.425" r="1.54818" fill="#6246EA"/>
<circle cx="146.656" cy="394.425" r="1.54818" fill="#6246EA"/>
<circle cx="201.358" cy="394.425" r="1.54818" fill="#6246EA"/>
<circle cx="256.061" cy="394.425" r="1.54818" fill="#6246EA"/>
<circle cx="310.763" cy="394.425" r="1.54818" fill="#6246EA"/>
<circle cx="365.466" cy="394.425" r="1.54818" fill="#6246EA"/>
<circle cx="420.168" cy="394.425" r="1.54818" fill="#6246EA"/>
<circle cx="474.871" cy="394.425" r="1.54818" fill="#6246EA"/>
<circle cx="529.573" cy="394.425" r="1.54818" fill="#6246EA"/>
<circle cx="584.276" cy="394.425" r="1.54818" fill="#6246EA"/>
<circle cx="638.978" cy="394.425" r="1.54818" fill="#6246EA"/>
<circle cx="693.681" cy="394.425" r="1.54818" fill="#6246EA"/>
<circle cx="748.383" cy="394.425" r="1.54818" fill="#6246EA"/>
<circle cx="803.086" cy="394.425" r="1.54818" fill="#6246EA"/>
<circle cx="857.788" cy="394.425" r="1.54818" fill="#6246EA"/>
<circle cx="912.491" cy="394.425" r="1.54818" fill="#6246EA"/>
<circle cx="967.193" cy="394.425" r="1.54818" fill="#6246EA"/>
<circle cx="1021.9" cy="394.425" r="1.54818" fill="#6246EA"/>
<circle cx="1076.6" cy="394.425" r="1.54818" fill="#6246EA"/>
<circle cx="1131.3" cy="394.425" r="1.54818" fill="#6246EA"/>
<circle cx="1186" cy="394.425" r="1.54818" fill="#6246EA"/>
<circle cx="1240.71" cy="394.425" r="1.54818" fill="#6246EA"/>
<circle cx="1295.41" cy="394.425" r="1.54818" fill="#6246EA"/>
<circle cx="1350.11" cy="394.425" r="1.54818" fill="#6246EA"/>
</g>
<g clip-path="url(#clip8_302_1677)">
<circle cx="37.2507" cy="450.16" r="1.54818" fill="#6246EA"/>
<circle cx="91.9532" cy="450.16" r="1.54818" fill="#6246EA"/>
<circle cx="146.656" cy="450.16" r="1.54818" fill="#6246EA"/>
<circle cx="201.358" cy="450.16" r="1.54818" fill="#6246EA"/>
<circle cx="256.061" cy="450.16" r="1.54818" fill="#6246EA"/>
<circle cx="310.763" cy="450.16" r="1.54818" fill="#6246EA"/>
<circle cx="365.466" cy="450.16" r="1.54818" fill="#6246EA"/>
<circle cx="420.168" cy="450.16" r="1.54818" fill="#6246EA"/>
<circle cx="474.871" cy="450.16" r="1.54818" fill="#6246EA"/>
<circle cx="529.573" cy="450.16" r="1.54818" fill="#6246EA"/>
<circle cx="584.276" cy="450.16" r="1.54818" fill="#6246EA"/>
<circle cx="638.978" cy="450.16" r="1.54818" fill="#6246EA"/>
<circle cx="693.681" cy="450.16" r="1.54818" fill="#6246EA"/>
<circle cx="748.383" cy="450.16" r="1.54818" fill="#6246EA"/>
<circle cx="803.086" cy="450.16" r="1.54818" fill="#6246EA"/>
<circle cx="857.788" cy="450.16" r="1.54818" fill="#6246EA"/>
<circle cx="912.491" cy="450.16" r="1.54818" fill="#6246EA"/>
<circle cx="967.193" cy="450.16" r="1.54818" fill="#6246EA"/>
<circle cx="1021.9" cy="450.16" r="1.54818" fill="#6246EA"/>
<circle cx="1076.6" cy="450.16" r="1.54818" fill="#6246EA"/>
<circle cx="1131.3" cy="450.16" r="1.54818" fill="#6246EA"/>
<circle cx="1186" cy="450.16" r="1.54818" fill="#6246EA"/>
<circle cx="1240.71" cy="450.16" r="1.54818" fill="#6246EA"/>
<circle cx="1295.41" cy="450.16" r="1.54818" fill="#6246EA"/>
<circle cx="1350.11" cy="450.16" r="1.54818" fill="#6246EA"/>
</g>
<g clip-path="url(#clip9_302_1677)">
<circle cx="37.2507" cy="505.895" r="1.54818" fill="#6246EA"/>
<circle cx="91.9532" cy="505.895" r="1.54818" fill="#6246EA"/>
<circle cx="146.656" cy="505.895" r="1.54818" fill="#6246EA"/>
<circle cx="201.358" cy="505.895" r="1.54818" fill="#6246EA"/>
<circle cx="256.061" cy="505.895" r="1.54818" fill="#6246EA"/>
<circle cx="310.763" cy="505.895" r="1.54818" fill="#6246EA"/>
<circle cx="365.466" cy="505.895" r="1.54818" fill="#6246EA"/>
<circle cx="420.168" cy="505.895" r="1.54818" fill="#6246EA"/>
<circle cx="474.871" cy="505.895" r="1.54818" fill="#6246EA"/>
<circle cx="529.573" cy="505.895" r="1.54818" fill="#6246EA"/>
<circle cx="584.276" cy="505.895" r="1.54818" fill="#6246EA"/>
<circle cx="638.978" cy="505.895" r="1.54818" fill="#6246EA"/>
<circle cx="693.681" cy="505.895" r="1.54818" fill="#6246EA"/>
<circle cx="748.383" cy="505.895" r="1.54818" fill="#6246EA"/>
<circle cx="803.086" cy="505.895" r="1.54818" fill="#6246EA"/>
<circle cx="857.788" cy="505.895" r="1.54818" fill="#6246EA"/>
<circle cx="912.491" cy="505.895" r="1.54818" fill="#6246EA"/>
<circle cx="967.193" cy="505.895" r="1.54818" fill="#6246EA"/>
<circle cx="1021.9" cy="505.895" r="1.54818" fill="#6246EA"/>
<circle cx="1076.6" cy="505.895" r="1.54818" fill="#6246EA"/>
<circle cx="1131.3" cy="505.895" r="1.54818" fill="#6246EA"/>
<circle cx="1186" cy="505.895" r="1.54818" fill="#6246EA"/>
<circle cx="1240.71" cy="505.895" r="1.54818" fill="#6246EA"/>
<circle cx="1295.41" cy="505.895" r="1.54818" fill="#6246EA"/>
<circle cx="1350.11" cy="505.895" r="1.54818" fill="#6246EA"/>
</g>
<g clip-path="url(#clip10_302_1677)">
<circle cx="37.2507" cy="561.629" r="1.54818" fill="#6246EA"/>
<circle cx="91.9532" cy="561.629" r="1.54818" fill="#6246EA"/>
<circle cx="146.656" cy="561.629" r="1.54818" fill="#6246EA"/>
<circle cx="201.358" cy="561.629" r="1.54818" fill="#6246EA"/>
<circle cx="256.061" cy="561.629" r="1.54818" fill="#6246EA"/>
<circle cx="310.763" cy="561.629" r="1.54818" fill="#6246EA"/>
<circle cx="365.466" cy="561.629" r="1.54818" fill="#6246EA"/>
<circle cx="420.168" cy="561.629" r="1.54818" fill="#6246EA"/>
<circle cx="474.871" cy="561.629" r="1.54818" fill="#6246EA"/>
<circle cx="529.573" cy="561.629" r="1.54818" fill="#6246EA"/>
<circle cx="584.276" cy="561.629" r="1.54818" fill="#6246EA"/>
<circle cx="638.978" cy="561.629" r="1.54818" fill="#6246EA"/>
<circle cx="693.681" cy="561.629" r="1.54818" fill="#6246EA"/>
<circle cx="748.383" cy="561.629" r="1.54818" fill="#6246EA"/>
<circle cx="803.086" cy="561.629" r="1.54818" fill="#6246EA"/>
<circle cx="857.788" cy="561.629" r="1.54818" fill="#6246EA"/>
<circle cx="912.491" cy="561.629" r="1.54818" fill="#6246EA"/>
<circle cx="967.193" cy="561.629" r="1.54818" fill="#6246EA"/>
<circle cx="1021.9" cy="561.629" r="1.54818" fill="#6246EA"/>
<circle cx="1076.6" cy="561.629" r="1.54818" fill="#6246EA"/>
<circle cx="1131.3" cy="561.629" r="1.54818" fill="#6246EA"/>
<circle cx="1186" cy="561.629" r="1.54818" fill="#6246EA"/>
<circle cx="1240.71" cy="561.629" r="1.54818" fill="#6246EA"/>
<circle cx="1295.41" cy="561.629" r="1.54818" fill="#6246EA"/>
<circle cx="1350.11" cy="561.629" r="1.54818" fill="#6246EA"/>
</g>
<g clip-path="url(#clip11_302_1677)">
<circle cx="37.2507" cy="617.364" r="1.54818" fill="#6246EA"/>
<circle cx="91.9532" cy="617.364" r="1.54818" fill="#6246EA"/>
<circle cx="146.656" cy="617.364" r="1.54818" fill="#6246EA"/>
<circle cx="201.358" cy="617.364" r="1.54818" fill="#6246EA"/>
<circle cx="256.061" cy="617.364" r="1.54818" fill="#6246EA"/>
<circle cx="310.763" cy="617.364" r="1.54818" fill="#6246EA"/>
<circle cx="365.466" cy="617.364" r="1.54818" fill="#6246EA"/>
<circle cx="420.168" cy="617.364" r="1.54818" fill="#6246EA"/>
<circle cx="474.871" cy="617.364" r="1.54818" fill="#6246EA"/>
<circle cx="529.573" cy="617.364" r="1.54818" fill="#6246EA"/>
<circle cx="584.276" cy="617.364" r="1.54818" fill="#6246EA"/>
<circle cx="638.978" cy="617.364" r="1.54818" fill="#6246EA"/>
<circle cx="693.681" cy="617.364" r="1.54818" fill="#6246EA"/>
<circle cx="748.383" cy="617.364" r="1.54818" fill="#6246EA"/>
<circle cx="803.086" cy="617.364" r="1.54818" fill="#6246EA"/>
<circle cx="857.788" cy="617.364" r="1.54818" fill="#6246EA"/>
<circle cx="912.491" cy="617.364" r="1.54818" fill="#6246EA"/>
<circle cx="967.193" cy="617.364" r="1.54818" fill="#6246EA"/>
<circle cx="1021.9" cy="617.364" r="1.54818" fill="#6246EA"/>
<circle cx="1076.6" cy="617.364" r="1.54818" fill="#6246EA"/>
<circle cx="1131.3" cy="617.364" r="1.54818" fill="#6246EA"/>
<circle cx="1186" cy="617.364" r="1.54818" fill="#6246EA"/>
<circle cx="1240.71" cy="617.364" r="1.54818" fill="#6246EA"/>
<circle cx="1295.41" cy="617.364" r="1.54818" fill="#6246EA"/>
<circle cx="1350.11" cy="617.364" r="1.54818" fill="#6246EA"/>
</g>
<g clip-path="url(#clip12_302_1677)">
<circle cx="37.2507" cy="673.098" r="1.54818" fill="#6246EA"/>
<circle cx="91.9532" cy="673.098" r="1.54818" fill="#6246EA"/>
<circle cx="146.656" cy="673.098" r="1.54818" fill="#6246EA"/>
<circle cx="201.358" cy="673.098" r="1.54818" fill="#6246EA"/>
<circle cx="256.061" cy="673.098" r="1.54818" fill="#6246EA"/>
<circle cx="310.763" cy="673.098" r="1.54818" fill="#6246EA"/>
<circle cx="365.466" cy="673.098" r="1.54818" fill="#6246EA"/>
<circle cx="420.168" cy="673.098" r="1.54818" fill="#6246EA"/>
<circle cx="474.871" cy="673.098" r="1.54818" fill="#6246EA"/>
<circle cx="529.573" cy="673.098" r="1.54818" fill="#6246EA"/>
<circle cx="584.276" cy="673.098" r="1.54818" fill="#6246EA"/>
<circle cx="638.978" cy="673.098" r="1.54818" fill="#6246EA"/>
<circle cx="693.681" cy="673.098" r="1.54818" fill="#6246EA"/>
<circle cx="748.383" cy="673.098" r="1.54818" fill="#6246EA"/>
<circle cx="803.086" cy="673.098" r="1.54818" fill="#6246EA"/>
<circle cx="857.788" cy="673.098" r="1.54818" fill="#6246EA"/>
<circle cx="912.491" cy="673.098" r="1.54818" fill="#6246EA"/>
<circle cx="967.193" cy="673.098" r="1.54818" fill="#6246EA"/>
<circle cx="1021.9" cy="673.098" r="1.54818" fill="#6246EA"/>
<circle cx="1076.6" cy="673.098" r="1.54818" fill="#6246EA"/>
<circle cx="1131.3" cy="673.098" r="1.54818" fill="#6246EA"/>
<circle cx="1186" cy="673.098" r="1.54818" fill="#6246EA"/>
<circle cx="1240.71" cy="673.098" r="1.54818" fill="#6246EA"/>
<circle cx="1295.41" cy="673.098" r="1.54818" fill="#6246EA"/>
<circle cx="1350.11" cy="673.098" r="1.54818" fill="#6246EA"/>
</g>
<g clip-path="url(#clip13_302_1677)">
<circle cx="37.2507" cy="728.833" r="1.54818" fill="#6246EA"/>
<circle cx="91.9532" cy="728.833" r="1.54818" fill="#6246EA"/>
<circle cx="146.656" cy="728.833" r="1.54818" fill="#6246EA"/>
<circle cx="201.358" cy="728.833" r="1.54818" fill="#6246EA"/>
<circle cx="256.061" cy="728.833" r="1.54818" fill="#6246EA"/>
<circle cx="310.763" cy="728.833" r="1.54818" fill="#6246EA"/>
<circle cx="365.466" cy="728.833" r="1.54818" fill="#6246EA"/>
<circle cx="420.168" cy="728.833" r="1.54818" fill="#6246EA"/>
<circle cx="474.871" cy="728.833" r="1.54818" fill="#6246EA"/>
<circle cx="529.573" cy="728.833" r="1.54818" fill="#6246EA"/>
<circle cx="584.276" cy="728.833" r="1.54818" fill="#6246EA"/>
<circle cx="638.978" cy="728.833" r="1.54818" fill="#6246EA"/>
<circle cx="693.681" cy="728.833" r="1.54818" fill="#6246EA"/>
<circle cx="748.383" cy="728.833" r="1.54818" fill="#6246EA"/>
<circle cx="803.086" cy="728.833" r="1.54818" fill="#6246EA"/>
<circle cx="857.788" cy="728.833" r="1.54818" fill="#6246EA"/>
<circle cx="912.491" cy="728.833" r="1.54818" fill="#6246EA"/>
<circle cx="967.193" cy="728.833" r="1.54818" fill="#6246EA"/>
<circle cx="1021.9" cy="728.833" r="1.54818" fill="#6246EA"/>
<circle cx="1076.6" cy="728.833" r="1.54818" fill="#6246EA"/>
<circle cx="1131.3" cy="728.833" r="1.54818" fill="#6246EA"/>
<circle cx="1186" cy="728.833" r="1.54818" fill="#6246EA"/>
<circle cx="1240.71" cy="728.833" r="1.54818" fill="#6246EA"/>
<circle cx="1295.41" cy="728.833" r="1.54818" fill="#6246EA"/>
<circle cx="1350.11" cy="728.833" r="1.54818" fill="#6246EA"/>
</g>
<g clip-path="url(#clip14_302_1677)">
<circle cx="37.2507" cy="784.568" r="1.54818" fill="#6246EA"/>
<circle cx="91.9532" cy="784.568" r="1.54818" fill="#6246EA"/>
<circle cx="146.656" cy="784.568" r="1.54818" fill="#6246EA"/>
<circle cx="201.358" cy="784.568" r="1.54818" fill="#6246EA"/>
<circle cx="256.061" cy="784.568" r="1.54818" fill="#6246EA"/>
<circle cx="310.763" cy="784.568" r="1.54818" fill="#6246EA"/>
<circle cx="365.466" cy="784.568" r="1.54818" fill="#6246EA"/>
<circle cx="420.168" cy="784.568" r="1.54818" fill="#6246EA"/>
<circle cx="474.871" cy="784.568" r="1.54818" fill="#6246EA"/>
<circle cx="529.573" cy="784.568" r="1.54818" fill="#6246EA"/>
<circle cx="584.276" cy="784.568" r="1.54818" fill="#6246EA"/>
<circle cx="638.978" cy="784.568" r="1.54818" fill="#6246EA"/>
<circle cx="693.681" cy="784.568" r="1.54818" fill="#6246EA"/>
<circle cx="748.383" cy="784.568" r="1.54818" fill="#6246EA"/>
<circle cx="803.086" cy="784.568" r="1.54818" fill="#6246EA"/>
<circle cx="857.788" cy="784.568" r="1.54818" fill="#6246EA"/>
<circle cx="912.491" cy="784.568" r="1.54818" fill="#6246EA"/>
<circle cx="967.193" cy="784.568" r="1.54818" fill="#6246EA"/>
<circle cx="1021.9" cy="784.568" r="1.54818" fill="#6246EA"/>
<circle cx="1076.6" cy="784.568" r="1.54818" fill="#6246EA"/>
<circle cx="1131.3" cy="784.568" r="1.54818" fill="#6246EA"/>
<circle cx="1186" cy="784.568" r="1.54818" fill="#6246EA"/>
<circle cx="1240.71" cy="784.568" r="1.54818" fill="#6246EA"/>
<circle cx="1295.41" cy="784.568" r="1.54818" fill="#6246EA"/>
<circle cx="1350.11" cy="784.568" r="1.54818" fill="#6246EA"/>
</g>
<g clip-path="url(#clip15_302_1677)">
<circle cx="37.2507" cy="840.302" r="1.54818" fill="#6246EA"/>
<circle cx="91.9532" cy="840.302" r="1.54818" fill="#6246EA"/>
<circle cx="146.656" cy="840.302" r="1.54818" fill="#6246EA"/>
<circle cx="201.358" cy="840.302" r="1.54818" fill="#6246EA"/>
<circle cx="256.061" cy="840.302" r="1.54818" fill="#6246EA"/>
<circle cx="310.763" cy="840.302" r="1.54818" fill="#6246EA"/>
<circle cx="365.466" cy="840.302" r="1.54818" fill="#6246EA"/>
<circle cx="420.168" cy="840.302" r="1.54818" fill="#6246EA"/>
<circle cx="474.871" cy="840.302" r="1.54818" fill="#6246EA"/>
<circle cx="529.573" cy="840.302" r="1.54818" fill="#6246EA"/>
<circle cx="584.276" cy="840.302" r="1.54818" fill="#6246EA"/>
<circle cx="638.978" cy="840.302" r="1.54818" fill="#6246EA"/>
<circle cx="693.681" cy="840.302" r="1.54818" fill="#6246EA"/>
<circle cx="748.383" cy="840.302" r="1.54818" fill="#6246EA"/>
<circle cx="803.086" cy="840.302" r="1.54818" fill="#6246EA"/>
<circle cx="857.788" cy="840.302" r="1.54818" fill="#6246EA"/>
<circle cx="912.491" cy="840.302" r="1.54818" fill="#6246EA"/>
<circle cx="967.193" cy="840.302" r="1.54818" fill="#6246EA"/>
<circle cx="1021.9" cy="840.302" r="1.54818" fill="#6246EA"/>
<circle cx="1076.6" cy="840.302" r="1.54818" fill="#6246EA"/>
<circle cx="1131.3" cy="840.302" r="1.54818" fill="#6246EA"/>
<circle cx="1186" cy="840.302" r="1.54818" fill="#6246EA"/>
<circle cx="1240.71" cy="840.302" r="1.54818" fill="#6246EA"/>
<circle cx="1295.41" cy="840.302" r="1.54818" fill="#6246EA"/>
<circle cx="1350.11" cy="840.302" r="1.54818" fill="#6246EA"/>
</g>
<g clip-path="url(#clip16_302_1677)">
<circle cx="37.2507" cy="896.037" r="1.54818" fill="#6246EA"/>
<circle cx="91.9532" cy="896.037" r="1.54818" fill="#6246EA"/>
<circle cx="146.656" cy="896.037" r="1.54818" fill="#6246EA"/>
<circle cx="201.358" cy="896.037" r="1.54818" fill="#6246EA"/>
<circle cx="256.061" cy="896.037" r="1.54818" fill="#6246EA"/>
<circle cx="310.763" cy="896.037" r="1.54818" fill="#6246EA"/>
<circle cx="365.466" cy="896.037" r="1.54818" fill="#6246EA"/>
<circle cx="420.168" cy="896.037" r="1.54818" fill="#6246EA"/>
<circle cx="474.871" cy="896.037" r="1.54818" fill="#6246EA"/>
<circle cx="529.573" cy="896.037" r="1.54818" fill="#6246EA"/>
<circle cx="584.276" cy="896.037" r="1.54818" fill="#6246EA"/>
<circle cx="638.978" cy="896.037" r="1.54818" fill="#6246EA"/>
<circle cx="693.681" cy="896.037" r="1.54818" fill="#6246EA"/>
<circle cx="748.383" cy="896.037" r="1.54818" fill="#6246EA"/>
<circle cx="803.086" cy="896.037" r="1.54818" fill="#6246EA"/>
<circle cx="857.788" cy="896.037" r="1.54818" fill="#6246EA"/>
<circle cx="912.491" cy="896.037" r="1.54818" fill="#6246EA"/>
<circle cx="967.193" cy="896.037" r="1.54818" fill="#6246EA"/>
<circle cx="1021.9" cy="896.037" r="1.54818" fill="#6246EA"/>
<circle cx="1076.6" cy="896.037" r="1.54818" fill="#6246EA"/>
<circle cx="1131.3" cy="896.037" r="1.54818" fill="#6246EA"/>
<circle cx="1186" cy="896.037" r="1.54818" fill="#6246EA"/>
<circle cx="1240.71" cy="896.037" r="1.54818" fill="#6246EA"/>
<circle cx="1295.41" cy="896.037" r="1.54818" fill="#6246EA"/>
<circle cx="1350.11" cy="896.037" r="1.54818" fill="#6246EA"/>
</g>
<g clip-path="url(#clip17_302_1677)">
<circle cx="37.2507" cy="951.772" r="1.54818" fill="#6246EA"/>
<circle cx="91.9532" cy="951.772" r="1.54818" fill="#6246EA"/>
<circle cx="146.656" cy="951.772" r="1.54818" fill="#6246EA"/>
<circle cx="201.358" cy="951.772" r="1.54818" fill="#6246EA"/>
<circle cx="256.061" cy="951.772" r="1.54818" fill="#6246EA"/>
<circle cx="310.763" cy="951.772" r="1.54818" fill="#6246EA"/>
<circle cx="365.466" cy="951.772" r="1.54818" fill="#6246EA"/>
<circle cx="420.168" cy="951.772" r="1.54818" fill="#6246EA"/>
<circle cx="474.871" cy="951.772" r="1.54818" fill="#6246EA"/>
<circle cx="529.573" cy="951.772" r="1.54818" fill="#6246EA"/>
<circle cx="584.276" cy="951.772" r="1.54818" fill="#6246EA"/>
<circle cx="638.978" cy="951.772" r="1.54818" fill="#6246EA"/>
<circle cx="693.681" cy="951.772" r="1.54818" fill="#6246EA"/>
<circle cx="748.383" cy="951.772" r="1.54818" fill="#6246EA"/>
<circle cx="803.086" cy="951.772" r="1.54818" fill="#6246EA"/>
<circle cx="857.788" cy="951.772" r="1.54818" fill="#6246EA"/>
<circle cx="912.491" cy="951.772" r="1.54818" fill="#6246EA"/>
<circle cx="967.193" cy="951.772" r="1.54818" fill="#6246EA"/>
<circle cx="1021.9" cy="951.772" r="1.54818" fill="#6246EA"/>
<circle cx="1076.6" cy="951.772" r="1.54818" fill="#6246EA"/>
<circle cx="1131.3" cy="951.772" r="1.54818" fill="#6246EA"/>
<circle cx="1186" cy="951.772" r="1.54818" fill="#6246EA"/>
<circle cx="1240.71" cy="951.772" r="1.54818" fill="#6246EA"/>
<circle cx="1295.41" cy="951.772" r="1.54818" fill="#6246EA"/>
<circle cx="1350.11" cy="951.772" r="1.54818" fill="#6246EA"/>
</g>
</g>
<defs>
<clipPath id="clip0_302_1677">
<rect width="1444.97" height="54.7025" fill="white" transform="translate(-19 2.73462)"/>
</clipPath>
<clipPath id="clip1_302_1677">
<rect width="1444.97" height="54.7025" fill="white" transform="translate(-19 58.4692)"/>
</clipPath>
<clipPath id="clip2_302_1677">
<rect width="1444.97" height="54.7025" fill="white" transform="translate(-19 114.204)"/>
</clipPath>
<clipPath id="clip3_302_1677">
<rect width="1444.97" height="54.7025" fill="white" transform="translate(-19 169.939)"/>
</clipPath>
<clipPath id="clip4_302_1677">
<rect width="1444.97" height="54.7025" fill="white" transform="translate(-19 225.673)"/>
</clipPath>
<clipPath id="clip5_302_1677">
<rect width="1444.97" height="54.7025" fill="white" transform="translate(-19 281.408)"/>
</clipPath>
<clipPath id="clip6_302_1677">
<rect width="1444.97" height="54.7025" fill="white" transform="translate(-19 337.142)"/>
</clipPath>
<clipPath id="clip7_302_1677">
<rect width="1444.97" height="54.7025" fill="white" transform="translate(-19 392.877)"/>
</clipPath>
<clipPath id="clip8_302_1677">
<rect width="1444.97" height="54.7025" fill="white" transform="translate(-19 448.612)"/>
</clipPath>
<clipPath id="clip9_302_1677">
<rect width="1444.97" height="54.7025" fill="white" transform="translate(-19 504.346)"/>
</clipPath>
<clipPath id="clip10_302_1677">
<rect width="1444.97" height="54.7025" fill="white" transform="translate(-19 560.081)"/>
</clipPath>
<clipPath id="clip11_302_1677">
<rect width="1444.97" height="54.7025" fill="white" transform="translate(-19 615.816)"/>
</clipPath>
<clipPath id="clip12_302_1677">
<rect width="1444.97" height="54.7025" fill="white" transform="translate(-19 671.55)"/>
</clipPath>
<clipPath id="clip13_302_1677">
<rect width="1444.97" height="54.7025" fill="white" transform="translate(-19 727.285)"/>
</clipPath>
<clipPath id="clip14_302_1677">
<rect width="1444.97" height="54.7025" fill="white" transform="translate(-19 783.02)"/>
</clipPath>
<clipPath id="clip15_302_1677">
<rect width="1444.97" height="54.7025" fill="white" transform="translate(-19 838.754)"/>
</clipPath>
<clipPath id="clip16_302_1677">
<rect width="1444.97" height="54.7025" fill="white" transform="translate(-19 894.489)"/>
</clipPath>
<clipPath id="clip17_302_1677">
<rect width="1444.97" height="54.7025" fill="white" transform="translate(-19 950.223)"/>
</clipPath>
</defs>
</svg>
